<?xml version="1.0" encoding="UTF-8" standalone="no"?><!DOCTYPE svg PUBLIC "-//W3C//DTD SVG 1.1//EN" "http://www.w3.org/Graphics/SVG/1.1/DTD/svg11.dtd"><svg width="100%" height="100%" viewBox="0 0 430 991" version="1.1" xmlns="http://www.w3.org/2000/svg" xmlns:xlink="http://www.w3.org/1999/xlink" xml:space="preserve" xmlns:serif="http://www.serif.com/" style="fill-rule:evenodd;clip-rule:evenodd;stroke-linejoin:round;stroke-miterlimit:2;"><path d="M213.667,0c-9.705,0 -17.579,26.829 -17.579,59.925l35.162,0c0,-33.096 -7.867,-59.925 -17.583,-59.925Z" style="fill:#5c5e60;fill-rule:nonzero;"/><path d="M230.175,74.279l-33.012,0l-9.33,614.733l51.671,0l-9.329,-614.733Z" style="fill:#5c5e60;fill-rule:nonzero;"/><path d="M239.504,67.104c0,4.759 -3.85,8.613 -8.612,8.613l-34.446,0c-4.763,0 -8.613,-3.854 -8.613,-8.613c0,-4.754 3.85,-8.612 8.613,-8.612l34.446,0c4.762,0 8.612,3.858 8.612,8.612Z" style="fill:#bcc0c4;fill-rule:nonzero;"/><path d="M347.3,178.117c-22.162,0 -41.446,-16.534 -44.312,-39.08c-2.571,-20.27 11.824,-38.858 32.096,-41.42c16.912,-2.15 32.429,9.866 34.578,26.787c0.446,3.538 -2.05,6.775 -5.6,7.221c-3.529,0.45 -6.77,-2.054 -7.216,-5.592c-1.254,-9.854 -10.279,-16.85 -20.133,-15.604c-13.209,1.675 -22.584,13.775 -20.909,26.975c2.196,17.388 18.15,29.742 35.525,27.533c22.621,-2.866 38.679,-23.6 35.813,-46.22c-3.546,-27.988 -29.388,-47.796 -60.033,-46.113c-29.917,1.646 -83.83,20.013 -96.055,78.367c-0.725,3.496 -4.15,5.733 -7.641,4.996c-3.501,-0.73 -5.738,-4.15 -4.996,-7.646c13.825,-66.013 74.383,-86.767 107.983,-88.617c37.55,-2.075 69.142,22.596 73.558,57.388c3.763,29.687 -17.325,56.895 -46.996,60.666c-1.904,0.238 -3.791,0.359 -5.662,0.359Z" style="fill:#5c5e60;fill-rule:nonzero;"/><path d="M79.492,178.117c22.171,0 41.458,-16.534 44.312,-39.08c2.571,-20.27 -11.825,-38.858 -32.079,-41.42c-16.929,-2.15 -32.446,9.866 -34.587,26.787c-0.455,3.538 2.058,6.775 5.6,7.221c3.525,0.45 6.762,-2.054 7.208,-5.592c1.254,-9.854 10.279,-16.85 20.142,-15.604c13.2,1.675 22.575,13.775 20.908,26.975c-2.208,17.388 -18.158,29.742 -35.533,27.533c-22.605,-2.866 -38.68,-23.6 -35.813,-46.22c3.554,-27.988 29.392,-47.796 60.042,-46.113c29.916,1.646 83.821,20.013 96.045,78.367c0.734,3.496 4.159,5.733 7.642,4.996c3.496,-0.73 5.729,-4.15 5.004,-7.646c-13.833,-66.013 -74.383,-86.767 -107.983,-88.617c-37.558,-2.075 -69.15,22.596 -73.558,57.388c-3.771,29.687 17.316,56.895 46.996,60.666c1.895,0.238 3.791,0.359 5.654,0.359Z" style="fill:#5c5e60;fill-rule:nonzero;"/><path d="M269.229,711.917l-111.133,0l-13.996,206.187l139.137,0l-14.008,-206.187Z" style="fill:#5c5e60;fill-rule:nonzero;"/><path d="M283.237,918.104l-139.137,0c9.4,19.463 9.717,42.317 0.308,61.783l138.509,0c-9.396,-19.466 -9.088,-42.32 0.32,-61.783Z" style="fill:#5c5e60;fill-rule:nonzero;"/><path d="M213.667,683.871c-33.254,0 -60.217,9.112 -60.217,39.233l120.438,0c0,-30.121 -26.963,-39.233 -60.221,-39.233Z" style="fill:#7d7f7f;fill-rule:nonzero;"/><path d="M292.913,915.525c0,3.571 -2.896,6.471 -6.471,6.471l-142.017,0c-3.571,0 -6.466,-2.9 -6.466,-6.471c0,-3.575 2.895,-6.475 6.466,-6.475l142.017,0c3.575,0 6.471,2.9 6.471,6.475Z" style="fill:#bcc0c4;fill-rule:nonzero;"/><path d="M284.092,723.104c0,3.567 -2.896,6.471 -6.479,6.471l-127.888,0c-3.583,0 -6.471,-2.904 -6.471,-6.471c0,-3.579 2.888,-6.475 6.471,-6.475l127.888,0c3.583,0 6.479,2.896 6.479,6.475Z" style="fill:#bcc0c4;fill-rule:nonzero;"/><path d="M318.221,983.779c0,3.575 -2.896,6.479 -6.479,6.479l-196.15,0c-3.571,0 -6.467,-2.904 -6.467,-6.479c0,-3.571 2.896,-6.467 6.467,-6.467l196.15,0c3.583,0 6.479,2.896 6.479,6.467Z" style="fill:#bcc0c4;fill-rule:nonzero;"/><rect x="295.071" y="236.521" width="76.104" height="102.746" style="fill:#fffa99;fill-rule:nonzero;"/><path d="M374.471,233.217l-82.692,0l0,109.345l82.692,0l0,-109.345Zm-6.592,6.6l0,96.154l-69.512,0l0,-96.154l69.512,0Z" style="fill:#5c5e60;fill-rule:nonzero;"/><path d="M303.313,335.971l-4.946,0l0,-96.154l69.512,0l0,4.937l-29.041,0l0,-4.937l-6.455,0l0,4.937l-29.07,0l0,42.671l-4.946,0l0,6.454l4.946,0l0,42.092Z" style="fill:#deda85;fill-rule:nonzero;"/><rect x="377.767" y="236.521" width="35.717" height="102.746" style="fill:#e0d97c;fill-rule:nonzero;"/><path d="M416.783,233.217l-42.312,0l0,109.345l42.312,0l0,-109.345Zm-6.595,6.6l0,96.154l-29.134,0l0,-96.154l29.134,0Z" style="fill:#474a4c;fill-rule:nonzero;"/><path d="M414.388,222.142c-2.034,-3.255 -10.026,-16.2 -10.026,-16.2c-6.599,-11.43 -17.441,-17.426 -28.245,-17.646c-10.792,0.22 -21.642,6.216 -28.242,17.646c0,0 -8.046,12.908 -10.025,16.2c-5.779,9.633 -15.167,5.646 -15.167,5.646c0,0 3.255,6.258 14.825,6.258l77.221,0c11.575,0 14.829,-6.258 14.829,-6.258c0,0 -9.016,4.216 -15.17,-5.646Z" style="fill:#474a4c;fill-rule:nonzero;"/><rect x="333.463" y="188.296" width="42.654" height="45.196" style="fill:#474a4c;fill-rule:nonzero;"/><path d="M371.729,222.142c-2.025,-3.255 -10.016,-16.2 -10.016,-16.2c-6.601,-11.43 -17.45,-17.426 -28.25,-17.646c-10.788,0.22 -21.638,6.216 -28.238,17.646c0,0 -8.05,12.908 -10.025,16.2c-5.779,9.633 -15.171,5.646 -15.171,5.646c0,0 3.246,6.258 14.829,6.258l77.213,0c11.579,0 14.829,-6.258 14.829,-6.258c0,0 -9.008,4.216 -15.171,-5.646Z" style="fill:#5c5e60;fill-rule:nonzero;"/><path d="M338.838,335.971l-6.455,0l0,-33.392c-4.225,-1.15 -7.554,-4.471 -8.691,-8.7l-20.379,0l0,-6.454l20.379,0.004c1.137,-4.233 4.466,-7.55 8.691,-8.7l0,-33.975l6.455,0l0,33.975c4.229,1.15 7.549,4.467 8.695,8.696l20.346,0.004l0,6.45l-20.346,0c-1.146,4.229 -4.466,7.55 -8.695,8.7l0,33.392Zm-3.234,-52.463c-3.937,0 -7.137,3.204 -7.137,7.142c0,3.946 3.2,7.146 7.137,7.146c3.954,0 7.146,-3.2 7.146,-7.146c0,-3.938 -3.192,-7.142 -7.146,-7.142Z" style="fill:#deda85;fill-rule:nonzero;"/><path d="M338.838,335.971l0,0Zm29.058,-42.092l-0.017,0l0,-6.45l0.017,0l0,6.45Z" style="fill:#505254;fill-rule:nonzero;"/><path d="M303.313,293.879l-4.946,0l0,-6.454l4.946,0l0,6.454Zm35.525,-49.125l-6.455,0l0,-4.937l6.455,0l0,4.937Z" style="fill:#c1be74;fill-rule:nonzero;"/><path d="M429.558,227.788l-42.658,0c0,0 -3.25,6.258 -14.829,6.258l42.658,0c11.575,0 14.829,-6.258 14.829,-6.258Z" style="fill:#3b3e3f;fill-rule:nonzero;"/><path d="M333.121,295.683c-3.938,0 -7.138,-3.191 -7.138,-7.141c0,-3.946 3.2,-7.146 7.138,-7.146c3.95,0 7.146,3.2 7.146,7.146c0,3.95 -3.196,7.141 -7.146,7.141Zm0,-19.504c-6.825,0 -12.358,5.533 -12.358,12.363c0,6.829 5.533,12.362 12.358,12.362c6.829,0 12.362,-5.533 12.362,-12.362c0,-6.83 -5.533,-12.363 -12.362,-12.363Z" style="fill:#5c5e60;fill-rule:nonzero;"/><rect x="329.9" y="239.638" width="6.454" height="38.221" style="fill:#5c5e60;fill-rule:nonzero;"/><rect x="329.9" y="296.917" width="6.454" height="39.6" style="fill:#5c5e60;fill-rule:nonzero;"/><rect x="295.867" y="285.317" width="26.817" height="6.454" style="fill:#5c5e60;fill-rule:nonzero;"/><rect x="342.442" y="285.317" width="25.983" height="6.454" style="fill:#5c5e60;fill-rule:nonzero;"/><rect x="393.671" y="238.912" width="3.896" height="99.387" style="fill:#474a4c;fill-rule:nonzero;"/><rect x="377.371" y="285.317" width="14.971" height="6.454" style="fill:#474a4c;fill-rule:nonzero;"/><rect x="398.879" y="285.317" width="16.029" height="6.454" style="fill:#474a4c;fill-rule:nonzero;"/><path d="M400.667,287.892c0,6.612 -2.263,11.966 -5.038,11.966c-2.791,0 -5.054,-5.354 -5.054,-11.966c0,-6.613 2.263,-11.967 5.054,-11.967c2.775,0 5.038,5.354 5.038,11.967Z" style="fill:#474a4c;fill-rule:nonzero;"/><path d="M358.588,191.429c0,2.092 -1.696,3.792 -3.792,3.792c-2.1,0 -3.796,-1.7 -3.796,-3.792l0,-30.1c0,-2.092 1.696,-3.792 3.796,-3.792c2.096,0 3.792,1.7 3.792,3.792l0,30.1Z" style="fill:#474a4c;fill-rule:nonzero;"/><rect x="15.046" y="236.521" width="76.1" height="102.746" style="fill:#fffa99;fill-rule:nonzero;"/><path d="M94.45,233.217l-82.696,0l0,109.345l82.696,0l0,-109.345Zm-6.6,6.6l0,96.154l-69.508,0l0,-96.154l69.508,0Z" style="fill:#5c5e60;fill-rule:nonzero;"/><path d="M23.283,335.971l-4.941,0l0,-96.154l69.508,0l0,4.937l-29.029,0l0,-4.937l-6.458,0l0,4.937l-29.08,0l0,42.671l-4.941,0l0,6.454l4.941,0l0,42.092Z" style="fill:#deda85;fill-rule:nonzero;"/><rect x="97.746" y="236.521" width="35.717" height="102.746" style="fill:#e0d97c;fill-rule:nonzero;"/><path d="M136.75,233.217l-42.3,0l0,109.345l42.3,0l0,-109.345Zm-6.583,6.6l0,96.154l-29.125,0l0,-96.154l29.125,0Z" style="fill:#474a4c;fill-rule:nonzero;"/><path d="M134.367,222.142c-2.034,-3.255 -10.025,-16.2 -10.025,-16.2c-6.6,-11.43 -17.45,-17.426 -28.246,-17.646c-10.8,0.22 -21.642,6.216 -28.242,17.646c0,0 -8.046,12.908 -10.025,16.2c-5.779,9.633 -15.171,5.646 -15.171,5.646c0,0 3.259,6.258 14.829,6.258l77.213,0c11.583,0 14.829,-6.258 14.829,-6.258c0,0 -9.008,4.216 -15.162,-5.646Z" style="fill:#474a4c;fill-rule:nonzero;"/><rect x="53.442" y="188.296" width="42.654" height="45.196" style="fill:#474a4c;fill-rule:nonzero;"/><path d="M91.717,222.142c-2.042,-3.255 -10.034,-16.2 -10.034,-16.2c-6.591,-11.43 -17.441,-17.426 -28.241,-17.646c-10.796,0.22 -21.638,6.216 -28.238,17.646c0,0 -8.058,12.908 -10.033,16.2c-5.771,9.633 -15.171,5.646 -15.171,5.646c0,0 3.254,6.258 14.838,6.258l77.212,0c11.579,0 14.838,-6.258 14.838,-6.258c0,0 -9.021,4.216 -15.171,-5.646Z" style="fill:#5c5e60;fill-rule:nonzero;"/><path d="M58.821,335.971l-6.458,0l0,-33.392c-4.234,-1.15 -7.555,-4.471 -8.692,-8.7l-20.388,0l0,-6.454l20.388,0.004c1.137,-4.233 4.458,-7.55 8.692,-8.7l0,-33.975l6.458,0l0,33.975c4.225,1.15 7.546,4.467 8.683,8.696l20.346,0.004l0,6.45l-20.346,0c-1.129,4.229 -4.458,7.55 -8.683,8.7l0,33.392Zm-3.229,-52.463c-3.954,0 -7.146,3.204 -7.146,7.142c0,3.946 3.192,7.146 7.146,7.146c3.946,0 7.146,-3.2 7.146,-7.146c0,-3.938 -3.2,-7.142 -7.146,-7.142Z" style="fill:#deda85;fill-rule:nonzero;"/><path d="M58.821,335.971l0,0Zm29.046,-42.092l-0.017,0l0,-6.45l0.017,0l0,6.45Z" style="fill:#505254;fill-rule:nonzero;"/><path d="M23.283,293.879l-4.941,0l0,-6.454l4.941,0l0,6.454Zm35.538,-49.125l-6.458,0l0,-4.937l6.458,0l0,4.937Z" style="fill:#c1be74;fill-rule:nonzero;"/><path d="M149.529,227.788l-42.641,0c0,0 -3.259,6.258 -14.838,6.258l42.65,0c11.583,0 14.829,-6.258 14.829,-6.258Z" style="fill:#3b3e3f;fill-rule:nonzero;"/><path d="M53.1,295.683c-3.946,0 -7.146,-3.191 -7.146,-7.141c0,-3.946 3.2,-7.146 7.146,-7.146c3.942,0 7.138,3.2 7.138,7.146c0,3.95 -3.196,7.141 -7.138,7.141Zm0,-19.504c-6.825,0 -12.358,5.533 -12.358,12.363c0,6.829 5.533,12.362 12.358,12.362c6.821,0 12.362,-5.533 12.362,-12.362c0,-6.83 -5.541,-12.363 -12.362,-12.363Z" style="fill:#5c5e60;fill-rule:nonzero;"/><rect x="49.871" y="239.638" width="6.454" height="38.221" style="fill:#5c5e60;fill-rule:nonzero;"/><rect x="49.871" y="296.917" width="6.454" height="39.6" style="fill:#5c5e60;fill-rule:nonzero;"/><rect x="15.854" y="285.317" width="26.804" height="6.454" style="fill:#5c5e60;fill-rule:nonzero;"/><rect x="62.421" y="285.317" width="25.983" height="6.454" style="fill:#5c5e60;fill-rule:nonzero;"/><rect x="113.658" y="238.912" width="3.896" height="99.387" style="fill:#474a4c;fill-rule:nonzero;"/><rect x="97.338" y="285.317" width="14.983" height="6.454" style="fill:#474a4c;fill-rule:nonzero;"/><rect x="118.858" y="285.317" width="16.029" height="6.454" style="fill:#474a4c;fill-rule:nonzero;"/><path d="M120.646,287.892c0,6.612 -2.262,11.966 -5.046,11.966c-2.783,0 -5.037,-5.354 -5.037,-11.966c0,-6.613 2.254,-11.967 5.037,-11.967c2.784,0 5.046,5.354 5.046,11.967Z" style="fill:#474a4c;fill-rule:nonzero;"/><path d="M78.558,191.429c0,2.092 -1.695,3.792 -3.787,3.792c-2.088,0 -3.8,-1.7 -3.8,-3.792l0,-30.1c0,-2.092 1.712,-3.792 3.8,-3.792c2.092,0 3.787,1.7 3.787,3.792l0,30.1Z" style="fill:#474a4c;fill-rule:nonzero;"/><path d="M200.242,21.242c-0.013,-0.038 -0.021,-0.076 -0.029,-0.113c3.229,-12.925 8.024,-21.129 13.404,-21.129l0.025,0c-5.371,0.025 -10.18,8.267 -13.4,21.242Z" style="fill:#dedede;fill-rule:nonzero;"/><path d="M231.183,58.496c-0.096,0 -0.191,-0.004 -0.291,-0.004l-26.504,0c-0.101,-14.184 -1.642,-27.146 -4.146,-37.25c3.22,-12.975 8.029,-21.217 13.4,-21.242c9.55,0.042 17.321,26.092 17.541,58.496Z" style="fill:#505254;fill-rule:nonzero;"/><path d="M239.404,686.221c-7.804,-1.65 -16.529,-2.35 -25.737,-2.35l-0.788,0c-0.091,-0.017 -0.183,-0.038 -0.275,-0.059l-8.041,-528.212c2.8,-1.171 4.458,-4.2 3.82,-7.279c-1.104,-5.259 -2.504,-10.234 -4.158,-14.929l-0.879,-57.675l26.792,0l0.604,39.887c-5.442,9.413 -9.717,20.258 -12.325,32.717c-0.742,3.496 1.495,6.916 4.996,7.646c0.449,0.095 0.9,0.141 1.337,0.141c2.992,0 5.675,-2.091 6.304,-5.137c0.071,-0.325 0.138,-0.65 0.208,-0.971l8.142,536.233" style="fill:#505254;fill-rule:nonzero;"/><path d="M230.833,75.717l-26.796,0c4.755,0 8.617,-3.854 8.617,-8.613c0,-4.642 -3.679,-8.412 -8.266,-8.596l0,-0.016l26.504,0c0.1,0 0.195,0.004 0.291,0.004l0,0.012c4.592,0.184 8.263,3.954 8.263,8.596c0,4.759 -3.85,8.613 -8.613,8.613Z" style="fill:#a4a7ab;fill-rule:nonzero;"/><path d="M224.75,156.108c-0.437,0 -0.888,-0.046 -1.337,-0.141c-3.501,-0.73 -5.738,-4.15 -4.996,-7.646c2.608,-12.459 6.883,-23.304 12.325,-32.717l0.52,34.396c-0.07,0.321 -0.137,0.646 -0.208,0.971c-0.629,3.046 -3.312,5.137 -6.304,5.137Z" style="fill:#505254;fill-rule:nonzero;"/><path d="M204.563,155.6l-0.338,-22.208c1.654,4.695 3.054,9.67 4.158,14.929c0.638,3.079 -1.02,6.108 -3.82,7.279Z" style="fill:#505254;fill-rule:nonzero;"/><path d="M282.558,909.05l-26.787,0l-12.192,-179.475l26.8,0l12.179,179.475Z" style="fill:#505254;fill-rule:nonzero;"/><path d="M281.704,977.312l-26.787,0c-7.625,-17.587 -7.579,-37.612 -0.271,-55.316l26.792,0c-7.3,17.704 -7.35,37.729 0.266,55.316Z" style="fill:#505254;fill-rule:nonzero;"/><path d="M273.358,716.629l-26.8,0c-2.55,-17.379 -15.6,-28.837 -33.679,-32.758l0.788,0c9.208,0 17.933,0.7 25.737,2.35l0,0.012c18.213,3.867 31.388,12.929 33.954,30.396Z" style="fill:#6d6f6f;fill-rule:nonzero;"/><path d="M286.388,921.996l-26.8,0c3.57,0 6.47,-2.9 6.47,-6.471c0,-3.575 -2.9,-6.475 -6.47,-6.475l26.8,0c3.57,0 6.458,2.9 6.458,6.475c0,3.571 -2.888,6.471 -6.458,6.471Z" style="fill:#a4a7ab;fill-rule:nonzero;"/><path d="M277.554,729.575l-26.796,0c3.58,0 6.475,-2.904 6.475,-6.471c0,-3.579 -2.895,-6.475 -6.475,-6.475l26.796,0c3.575,0 6.471,2.896 6.471,6.475c0,3.567 -2.896,6.471 -6.471,6.471Z" style="fill:#a4a7ab;fill-rule:nonzero;"/><path d="M311.679,990.258l-26.791,0c3.575,0 6.479,-2.904 6.479,-6.479c0,-3.571 -2.904,-6.467 -6.479,-6.467l26.791,0c3.58,0 6.479,2.896 6.479,6.467c0,3.575 -2.899,6.479 -6.479,6.479Z" style="fill:#a4a7ab;fill-rule:nonzero;"/></svg>